<svg width="23" height="23" viewBox="0 0 23 23" fill="none" xmlns="http://www.w3.org/2000/svg">
<path d="M11.4998 0.0419922C5.17145 0.0419922 0.0415039 5.1722 0.0415039 11.5003C0.0415039 17.8287 5.17145 22.9587 11.4998 22.9587C17.8282 22.9587 22.9582 17.8287 22.9582 11.5003C22.9582 5.1722 17.8282 0.0419922 11.4998 0.0419922ZM11.4998 20.8753C6.32223 20.8753 2.12484 16.6782 2.12484 11.5003C2.12484 6.32272 6.32223 2.12533 11.4998 2.12533C16.6774 2.12533 20.8748 6.32272 20.8748 11.5003C20.8748 16.6782 16.6774 20.8753 11.4998 20.8753ZM15.3613 13.8889C15.7681 14.2956 15.7681 14.9553 15.3613 15.362C15.1582 15.5652 14.8912 15.667 14.6248 15.667C14.3584 15.6673 14.0918 15.5654 13.8884 15.362L10.7634 12.237C10.5681 12.0417 10.4582 11.7769 10.4582 11.5003V5.25033C10.4582 4.67507 10.9246 4.20866 11.4998 4.20866C12.0751 4.20866 12.5415 4.67507 12.5415 5.25033V11.0691L15.3613 13.8889Z" fill="#FF9D07"/>
</svg>
