<svg width="25" height="20" viewBox="0 0 25 20" fill="none" xmlns="http://www.w3.org/2000/svg">
<path d="M22.7681 19.9994C23.33 19.9994 23.8169 19.8105 24.2309 19.4375L17.148 12.2256C16.9781 12.3495 16.8133 12.47 16.6577 12.5845C16.1277 12.9821 15.6975 13.2924 15.3672 13.5148C15.0369 13.7376 14.5974 13.9647 14.0488 14.1966C13.4999 14.4288 12.9885 14.5445 12.5141 14.5445H12.5002H12.4863C12.0119 14.5445 11.5005 14.4289 10.9516 14.1966C10.4027 13.9647 9.96324 13.7376 9.63326 13.5148C9.30297 13.2924 8.873 12.9822 8.34268 12.5845C8.19489 12.4742 8.03099 12.3532 7.85379 12.2236L0.769531 19.4375C1.18343 19.8105 1.67068 19.9994 2.2326 19.9994H22.7681Z" fill="#FAA01E"/>
<path d="M1.40919 7.68418C0.879184 7.32441 0.409181 6.91237 0 6.44824V17.4205L6.24284 11.0643C4.99392 10.1765 3.38474 9.05109 1.40919 7.68418Z" fill="#FAA01E"/>
<path d="M23.605 7.68418C21.7048 8.9937 20.0898 10.121 18.7598 11.0668L25.0001 17.4208V6.44824C24.6 6.90303 24.135 7.3148 23.605 7.68418Z" fill="#FAA01E"/>
<path d="M22.7679 0H2.23249C1.51607 0 0.965276 0.246319 0.579424 0.73845C0.193255 1.23081 0.000488281 1.84656 0.000488281 2.58501C0.000488281 3.1815 0.2563 3.8278 0.767698 4.5241C1.27909 5.22012 1.82326 5.76683 2.39993 6.1645C2.71606 6.39192 3.66941 7.06673 5.25998 8.18871C6.1186 8.79453 6.86529 9.32257 7.50696 9.77824C8.05389 10.1662 8.52558 10.5023 8.91501 10.7811C8.95972 10.8131 9.03003 10.8643 9.12335 10.9322C9.22388 11.0057 9.35111 11.099 9.50807 11.2144C9.81031 11.437 10.0614 11.6169 10.2614 11.7543C10.4611 11.8918 10.7031 12.0454 10.9869 12.2159C11.2706 12.3862 11.5381 12.5143 11.7892 12.5994C12.0403 12.6846 12.2728 12.7273 12.4867 12.7273H12.5006H12.5144C12.7283 12.7273 12.9608 12.6846 13.212 12.5994C13.463 12.5143 13.7303 12.3865 14.0142 12.2159C14.2978 12.0454 14.5394 11.8915 14.7398 11.7543C14.9398 11.6169 15.1909 11.437 15.4931 11.2144C15.6498 11.099 15.777 11.0057 15.8775 10.9324C15.9709 10.8642 16.0412 10.8133 16.0861 10.7811C16.3895 10.5662 16.8623 10.2315 17.4979 9.78216C18.6545 8.96395 20.3579 7.75966 22.6152 6.1645C23.294 5.68171 23.8612 5.09909 24.3171 4.41748C24.7721 3.73588 25.0002 3.0209 25.0002 2.27279C25.0002 1.64775 24.779 1.11292 24.3376 0.667466C23.8957 0.222566 23.3724 0 22.7679 0Z" fill="#FAA01E"/>
</svg>
