<svg width="19" height="25" viewBox="0 0 19 25" fill="none" xmlns="http://www.w3.org/2000/svg">
<path d="M9.09755 0C4.0814 0 0 4.0814 0 9.09806C0 10.4066 0.267828 11.656 0.795644 12.8117C3.07028 17.7892 7.4314 23.0443 8.71415 24.5362C8.81025 24.6478 8.95036 24.712 9.0978 24.712C9.24525 24.712 9.38536 24.6478 9.48146 24.5362C10.7637 23.0446 15.1248 17.7897 17.4002 12.8117C17.9283 11.656 18.1959 10.4066 18.1959 9.09806C18.1954 4.0814 14.114 0 9.09755 0ZM9.09755 13.8236C6.49186 13.8236 4.37174 11.7035 4.37174 9.0978C4.37174 6.49186 6.49186 4.37174 9.09755 4.37174C11.7032 4.37174 13.8234 6.49186 13.8234 9.0978C13.8236 11.7035 11.7035 13.8236 9.09755 13.8236Z" fill="#FF9D07"/>
</svg>
