<svg width="15" height="15" viewBox="0 0 15 15" fill="none" xmlns="http://www.w3.org/2000/svg">
<path d="M1.5 15C1.05 15 0.75 14.85 0.45 14.55C-0.15 13.95 -0.15 13.05 0.45 12.45L12.45 0.45C13.05 -0.15 13.95 -0.15 14.55 0.45C15.15 1.05 15.15 1.95 14.55 2.55L2.55 14.55C2.25 14.85 1.95 15 1.5 15Z" fill="#FF9D07"/>
<path d="M13.5 15C13.05 15 12.75 14.85 12.45 14.55L0.45 2.55C-0.15 1.95 -0.15 1.05 0.45 0.45C1.05 -0.15 1.95 -0.15 2.55 0.45L14.55 12.45C15.15 13.05 15.15 13.95 14.55 14.55C14.25 14.85 13.95 15 13.5 15Z" fill="#FF9D07"/>
</svg>
