<svg width="55" height="55" viewBox="0 0 55 55" fill="none" xmlns="http://www.w3.org/2000/svg">
<path fill-rule="evenodd" clip-rule="evenodd" d="M0.0247803 27.2445C0.0247803 12.2075 12.2628 0.0175781 27.3593 0.0175781C42.4557 0.0175781 54.6938 12.2075 54.6938 27.2445C54.6938 42.2815 42.4557 54.4714 27.3593 54.4714C12.2628 54.4714 0.0247803 42.2815 0.0247803 27.2445ZM13.692 38.4434C13.692 32.4072 18.4054 27.4675 24.3662 27.0766C24.7864 27.0491 25.1288 27.3917 25.1288 27.8111C25.1288 33.8474 20.4154 38.7871 14.4546 39.1779C14.0345 39.2055 13.692 38.8628 13.692 38.4434ZM27.0982 12.6226H26.117C25.7137 12.6226 25.3508 12.8665 25.1997 13.239L23.9069 16.4269C23.7126 16.906 23.715 17.442 23.9136 17.9195L30.9874 34.9269C31.8882 37.148 34.5469 39.8027 40.6795 39.0831C40.9429 39.0522 41.14 38.8272 41.14 38.5631C41.14 38.3036 40.9498 38.0762 40.7196 37.9545C39.5483 37.3348 37.2206 34.9805 35.6023 30.8302C34.4669 27.9185 32.4586 23.365 30.6512 19.2671C29.6482 16.9932 28.7072 14.8595 28.0114 13.2244C27.8557 12.8584 27.4972 12.6226 27.0982 12.6226Z" fill="#2A4C4A"/>
</svg>
